# xmcd
#
# Track frame offsets:
# 150
# 14808
# 31486
#
# Disc length: 676 seconds
#
#
# Revision: 1
# Processed by: cddbd v1.5.1PL0 Copyright (c) Steve Scherf et al.
# Submitted via: FreeRIP 2.941 
#
DISCID=2102a203
DTITLE=Ian McCulloch - Sliding (single part II)
DYEAR=1900
DGENRE=Pop
TTITLE0=Sliding (acoustic)
TTITLE1=Planet Song
TTITLE2=Jealous Guy
EXTD=
EXTT0=
EXTT1=
EXTT2=
PLAYORDER=
